<?xml version="1.0" encoding="UTF-8"?>
<svg version="1.1" xmlns="http://www.w3.org/2000/svg" width="50" height="28">
<path d="M0 0 C16.5 0 33 0 50 0 C50 9.24 50 18.48 50 28 C33.5 28 17 28 0 28 C0 18.76 0 9.52 0 0 Z " fill="#103875" transform="translate(0,0)"/>
<path d="M0 0 C2.3125 0.875 2.3125 0.875 3.3125 2.875 C3.296875 5.15234375 3.296875 5.15234375 3.0625 7.8125 C2.99546875 8.68777344 2.9284375 9.56304687 2.859375 10.46484375 C2.23810733 13.20285913 1.5474408 14.21396992 -0.6875 15.875 C-2.75 15.75 -2.75 15.75 -4.6875 14.875 C-7.14199095 11.19326358 -7.38310229 8.15166592 -6.6875 3.875 C-4.61889718 0.73378831 -3.80231389 -0.17685181 0 0 Z " fill="#EFC83C" transform="translate(19.6875,10.125)"/>
<path d="M0 0 C1.875 0.875 1.875 0.875 3.875 2.875 C3.95703125 5.15234375 3.95703125 5.15234375 3.6875 7.8125 C3.61144531 8.68777344 3.53539062 9.56304687 3.45703125 10.46484375 C2.79814267 13.19326158 2.1318932 14.23561027 -0.125 15.875 C-2.75 15.6875 -2.75 15.6875 -5.125 14.875 C-6.85204516 11.42090969 -6.61384297 7.65181416 -6.125 3.875 C-3.40801887 -0.2004717 -3.40801887 -0.2004717 0 0 Z " fill="#D8B845" transform="translate(31.125,3.125)"/>
<path d="M0 0 C-0.165 0.515625 -0.33 1.03125 -0.5 1.5625 C-1.15049 4.73363876 -1.0620734 7.77218334 -1 11 C-0.01 10.01 0.98 9.02 2 8 C2.625 10.375 2.625 10.375 3 13 C2.34 13.66 1.68 14.32 1 15 C-1.5625 14.75 -1.5625 14.75 -4 14 C-5.16343227 11.67313547 -5.19895988 10.15278587 -5.25 7.5625 C-5.28867187 6.38880859 -5.28867187 6.38880859 -5.328125 5.19140625 C-4.84109999 1.93877492 -3.40339687 0 0 0 Z " fill="#EFCB3B" transform="translate(30,4)"/>
<path d="M0 0 C0.66 0 1.32 0 2 0 C1.67 2.97 1.34 5.94 1 9 C1.66 9.33 2.32 9.66 3 10 C3 10.66 3 11.32 3 12 C1.35 12.33 -0.3 12.66 -2 13 C-3.90401138 11.09598862 -4.93520439 9.66574314 -5.19921875 6.953125 C-5.1886578 4.96766727 -5.09915043 2.9830086 -5 1 C-4.67 1 -4.34 1 -4 1 C-3.67 2.98 -3.34 4.96 -3 7 C-2.01 4.69 -1.02 2.38 0 0 Z " fill="#E1C040" transform="translate(18,13)"/>
<path d="M0 0 C0.66 0 1.32 0 2 0 C1.88637738 1.4800841 1.75877092 2.95910074 1.625 4.4375 C1.52058594 5.67306641 1.52058594 5.67306641 1.4140625 6.93359375 C1.27742188 7.61550781 1.14078125 8.29742187 1 9 C0.01 9.495 0.01 9.495 -1 10 C-2.25 3.375 -2.25 3.375 0 0 Z " fill="#2B4571" transform="translate(18,13)"/>
<path d="M0 0 C0.33 0 0.66 0 1 0 C1.05399736 1.45792884 1.09279177 2.91642712 1.125 4.375 C1.14820313 5.18710938 1.17140625 5.99921875 1.1953125 6.8359375 C1 9 1 9 -1 11 C-2.50662097 7.98675805 -2.17770373 5.31713623 -2 2 C-1.34 1.34 -0.68 0.68 0 0 Z " fill="#213D72" transform="translate(30,6)"/>
<path d="M0 0 C-0.66 3.63 -1.32 7.26 -2 11 C-2.33 11 -2.66 11 -3 11 C-3.33 7.7 -3.66 4.4 -4 1 C-2 0 -2 0 0 0 Z " fill="#F8D335" transform="translate(30,4)"/>
<path d="M0 0 C1.98 0.495 1.98 0.495 4 1 C3.34 2.32 2.68 3.64 2 5 C1.01 5 0.02 5 -1 5 C-0.67 3.35 -0.34 1.7 0 0 Z " fill="#E9C73C" transform="translate(25,20)"/>
<path d="M0 0 C0.66 0 1.32 0 2 0 C2.66 1.65 3.32 3.3 4 5 C2.02 5 0.04 5 -2 5 C-2 4.34 -2 3.68 -2 3 C-1.34 3 -0.68 3 0 3 C0 2.01 0 1.02 0 0 Z " fill="#1F3E72" transform="translate(24,16)"/>
</svg>
